<svg width="600" height="600" viewBox="0 0 600 600" fill="none" xmlns="http://www.w3.org/2000/svg">
<path d="M463.071 305.693L463.061 305.683L331.815 174.437C323.039 165.647 311.518 161.25 300 161.25C288.501 161.25 276.954 165.604 268.154 174.404L136.904 305.654C119.326 323.231 119.326 351.71 136.904 369.288C154.48 386.864 182.957 386.865 200.535 369.291C200.536 369.29 200.537 369.289 200.538 369.288L299.999 269.938L399.404 369.288C416.981 386.865 445.46 386.865 463.038 369.288C480.617 351.708 480.61 323.295 463.071 305.693ZM7.5 300C7.5 138.439 138.439 7.5 300 7.5C461.561 7.5 592.5 138.439 592.5 300C592.5 461.561 461.561 592.5 300 592.5C138.439 592.5 7.5 461.561 7.5 300Z" fill="#C70101" stroke="black" stroke-width="15"/>
</svg>
